{"title":"Summer.Of.Dreams.2016.HDTV.x264-TheRealTTL","uid":15759341,"size":744713059,"categoryP":"video","categoryS":"tv_shows","magnet":"?xt=urn:btih:55c020db575bd9b5d84d6728188acaf488f1b5fa&amp;dn=Summer.Of.Dreams.2016.HDTV.x264-TheRealTTL&amp;tr=udp%3A%2F%2Ftracker.leechers-paradise.org%3A6969&amp;tr=udp%3A%2F%2Fzer0day.ch%3A1337&amp;tr=udp%3A%2F%2Fopen.demonii.com%3A1337&amp;tr=udp%3A%2F%2Ftracker.coppersurfer.tk%3A6969&amp;tr=udp%3A%2F%2Fexodus.desync.com%3A6969","seeders":2,"leechers":3,"uploader":"thetorrentlord","files":3,"time":1473093561,"description":"Hallmark movie.\t\t\t\t\t\t\t\t\t\t\t\t\t\t\t\t\t\t\t\t\t\t\t\t\t\tGrab the sample and if you like it then go for it.\t\t\t\t\t\t\t\t\t\t\t\t\t\t\t\t\t\t\t\t\t\t\t\t\t\t\t\t\t\t\t\t\t\t\tEnjoy and please share.\t\t\t\t\t\t\t\t\t\t\t\t\t\t\t\t\t\t\t\t\t\t\t\t\t\t\t\t\t\t\t\t\t\t\t\t\t\t\t\t\t\t\t\t\t\t\t\t\t\t\t\t\t\t\t\t\t\t\t\t\t\t\t\tSummer.Of.Dreams.2016.HDTV.x264-TheRealTTL.mp4\r\nFormat                           : MPEG-4\r\nFormat profile                   : Base Media / Version 2\r\nCodec ID                         : mp42\r\nFile size                        : 701 MiB\r\nDuration                         : 1h 23mn\r\nOverall bit rate                 : 1 171 Kbps\r\nEncoded date                     : UTC 2036-02-06 06:28:16\r\nTagged date                      : UTC 2036-02-06 06:28:16\r\nWriting application              : HandBrake 0.10.2 2015060900\r\n\r\nVideo\r\nID                               : 1\r\nFormat                           : AVC\r\nFormat/Info                      : Advanced Video Codec\r\nFormat profile                   :   \r\nFormat settings, CABAC           : Yes\r\nFormat settings, ReFrames        : 4 frames\r\nCodec ID                         : avc1\r\nCodec ID/Info                    : Advanced Video Coding\r\nDuration                         : 1h 23mn\r\nBit rate mode                    : Variable\r\nBit rate                         : 1 036 Kbps\r\nWidth                            : 720 pixels\r\nHeight                           : 406 pixels\r\nDisplay aspect ratio             : 16:9\r\nFrame rate mode                  : Constant\r\nFrame rate                       : 29.970 fps\r\nResolution                       : 8 bits\r\nColorimetry                      : 4:2:0\r\nScan type                        : Progressive\r\nBits/(Pixel*Frame)               : 0.118\r\nStream size                      : 620 MiB (88%)\r\nWriting library                  : x264 core 142 r2479 dd79a61\r\n\r\n\r\nAudio                            : English\r\nID                               : 2\r\nFormat                           : AAC\r\nFormat/Info                      : Advanced Audio Codec\r\nFormat version                   : Version 4\r\nFormat profile                   : LC\r\nFormat settings, SBR             : No\r\nCodec ID                         : 40\r\nDuration                         : 1h 23mn\r\nBit rate mode                    : Variable\r\nBit rate                         : 128 Kbps\r\nChannel(s)                       : 2 channels\r\nChannel positions                : L R\r\nSampling rate                    : 48.0 KHz\r\nStream size                      : 76.8 MiB (11%)\r\nTitle                            : Stereo\r\nEncoded date                     : UTC 2036-02-06 06:28:16\r\nTagged date                      : UTC 2036-02-06 06:28:16","torrent":{"xt":"urn:btih:55c020db575bd9b5d84d6728188acaf488f1b5fa","amp;dn":"Summer.Of.Dreams.2016.HDTV.x264-TheRealTTL","amp;tr":["udp%3A%2F%2Ftracker.leechers-paradise.org%3A6969","udp%3A%2F%2Fzer0day.ch%3A1337","udp%3A%2F%2Fopen.demonii.com%3A1337","udp%3A%2F%2Ftracker.coppersurfer.tk%3A6969","udp%3A%2F%2Fexodus.desync.com%3A6969"],"infoHash":"55c020db575bd9b5d84d6728188acaf488f1b5fa","infoHashBuffer":{"type":"Buffer","data":[85,192,32,219,87,91,217,181,216,77,103,40,24,138,202,244,136,241,181,250]},"announce":[],"urlList":[]}}